<?xml version="1.0" encoding="UTF-8"?>
<svg id="Layer_2" data-name="Layer 2" xmlns="http://www.w3.org/2000/svg" viewBox="0 0 50 43.93">
  <defs>
    <style>
      .cls-1 {
        fill: #dd81dd;
      }
    </style>
  </defs>
  <g id="Layer_1-2" data-name="Layer 1">
    <path class="cls-1" d="M48.73,5.84c-2.45-5.55-9.23-7.16-15.45-4.76-3.66,1.41-6.06,4.1-8.28,6.81-2.22-2.71-4.62-5.4-8.28-6.81C10.5-1.32,3.72.28,1.27,5.84-1.08,11.15.14,17.5,2.44,22.66c.43.97.92,1.93,1.46,2.86,4.98,8.58,11.94,14.11,21.09,18.41h0s0,0,0,0,0,0,0,0h0c9.15-4.3,16.11-9.82,21.09-18.41.54-.93,1.03-1.89,1.46-2.86,2.3-5.17,3.53-11.51,1.18-16.83Z"/>
  </g>
</svg>